<?xml version="1.0" encoding="UTF-8"?>
<!DOCTYPE svg PUBLIC "-//W3C//DTD SVG 1.1//EN" "http://www.w3.org/Graphics/SVG/1.1/DTD/svg11.dtd">
<svg xmlns="http://www.w3.org/2000/svg" version="1.1" width="382px" height="400px" style="shape-rendering:geometricPrecision; text-rendering:geometricPrecision; image-rendering:optimizeQuality; fill-rule:evenodd; clip-rule:evenodd" xmlns:xlink="http://www.w3.org/1999/xlink">
<g><path style="opacity:0.974" fill="#2a65fe" d="M 85.5,277.5 C 80.6917,268.554 75.8584,259.554 71,250.5C 66.2138,238.317 62.3805,225.984 59.5,213.5C 52.3787,149.258 75.3787,99.0912 128.5,63C 178.703,35.0384 229.37,34.3717 280.5,61C 285.298,63.6347 289.965,66.4681 294.5,69.5C 309.583,64.4743 321.083,68.8077 329,82.5C 334.877,100.557 329.044,113.057 311.5,120C 289.902,122.073 278.402,112.24 277,90.5C 240.476,64.7887 201.309,59.9554 159.5,76C 113.186,99.7 88.5191,137.7 85.5,190C 88.0305,239.148 110.364,276.148 152.5,301C 196.218,320.76 237.885,317.093 277.5,290C 277.543,267.633 288.877,257.299 311.5,259C 329.849,266.697 335.349,279.864 328,298.5C 319.375,310.21 307.875,314.376 293.5,311C 249.434,339.707 202.434,345.707 152.5,329C 125.343,317.998 103.01,300.831 85.5,277.5 Z"/></g>
<g><path style="opacity:0.966" fill="#a5a5a6" d="M 59.5,213.5 C 62.3805,225.984 66.2138,238.317 71,250.5C 75.8584,259.554 80.6917,268.554 85.5,277.5C 85.3334,294.503 85.5001,311.503 86,328.5C 96.6238,339.204 97.1238,350.371 87.5,362C 75.6276,370.161 64.7942,368.995 55,358.5C 49.3302,347.505 50.6635,337.505 59,328.5C 59.5,290.168 59.6667,251.835 59.5,213.5 Z"/></g>
</svg>
