<svg xmlns="http://www.w3.org/2000/svg" xmlns:xlink="http://www.w3.org/1999/xlink" width="1500" viewBox="0 0 1500 375" height="375" version="1.0"><defs><g id="b"><path d="M 112.96875 -11.375 C 104.21875 -2.613281 90.507812 1.765625 71.84375 1.765625 C 53.71875 1.765625 38.910156 -3.742188 27.421875 -14.765625 C 15.785156 -25.941406 9.96875 -40.785156 9.96875 -59.296875 C 9.96875 -78.128906 15.707031 -93.597656 27.1875 -105.703125 C 39.375 -118.441406 55.664062 -124.8125 76.0625 -124.8125 C 90.507812 -124.8125 102.617188 -121.644531 112.390625 -115.3125 L 107.703125 -85.3125 L 106.875 -85.4375 C 103.125 -89.96875 99.179688 -92.9375 95.046875 -94.34375 C 88.328125 -96.6875 81.609375 -97.859375 74.890625 -97.859375 C 68.171875 -97.859375 62.894531 -97 59.0625 -95.28125 C 55.238281 -93.5625 51.957031 -91.175781 49.21875 -88.125 C 43.75 -81.875 41.015625 -73.59375 41.015625 -63.28125 C 41.015625 -45 47.34375 -33.046875 60 -27.421875 C 64.375 -25.546875 69.003906 -24.609375 73.890625 -24.609375 C 78.773438 -24.609375 83.03125 -25.035156 86.65625 -25.890625 C 90.289062 -26.753906 93.59375 -27.929688 96.5625 -29.421875 C 102.894531 -32.546875 107.191406 -36.175781 109.453125 -40.3125 L 110.28125 -39.96875 Z M 112.96875 -11.375"/></g><g id="c"><path d="M 8.328125 -60.59375 C 8.328125 -69.1875 9.789062 -77.40625 12.71875 -85.25 C 15.644531 -93.101562 19.84375 -99.960938 25.3125 -105.828125 C 37.269531 -118.484375 52.78125 -124.8125 71.84375 -124.8125 C 90.820312 -124.8125 105.898438 -118.832031 117.078125 -106.875 C 127.773438 -95.46875 133.125 -80.664062 133.125 -62.46875 C 133.125 -44.257812 127.617188 -29.179688 116.609375 -17.234375 C 104.960938 -4.566406 89.53125 1.765625 70.3125 1.765625 C 50.46875 1.765625 34.921875 -4.445312 23.671875 -16.875 C 13.441406 -28.207031 8.328125 -42.78125 8.328125 -60.59375 Z M 36.796875 -61.296875 C 36.796875 -56.367188 37.613281 -51.597656 39.25 -46.984375 C 40.894531 -42.378906 43.242188 -38.4375 46.296875 -35.15625 C 52.773438 -28.050781 61.289062 -24.5 71.84375 -24.5 C 81.601562 -24.5 89.296875 -27.972656 94.921875 -34.921875 C 100.390625 -41.640625 103.125 -50.390625 103.125 -61.171875 C 103.125 -72.109375 100.3125 -80.9375 94.6875 -87.65625 C 88.675781 -94.84375 80.4375 -98.4375 69.96875 -98.4375 C 59.34375 -98.4375 51.019531 -94.609375 45 -86.953125 C 39.53125 -79.921875 36.796875 -71.367188 36.796875 -61.296875 Z M 36.796875 -61.296875"/></g><g id="d"><path d="M 44.421875 -13.125 C 44.421875 -6.40625 44.578125 -2.03125 44.890625 0 L 15.125 0 L 15.125 -174.609375 L 44.421875 -174.609375 Z M 44.421875 -13.125"/></g><g id="e"><path d="M 98.09375 -7.265625 C 87 -1.242188 76.957031 1.765625 67.96875 1.765625 C 58.988281 1.765625 51.296875 0.925781 44.890625 -0.75 C 38.484375 -2.4375 33.050781 -4.921875 28.59375 -8.203125 C 19.53125 -14.847656 15 -24.457031 15 -37.03125 C 15 -48.28125 20.546875 -57.65625 31.640625 -65.15625 C 43.671875 -73.28125 60 -77.34375 80.625 -77.34375 L 85.3125 -77.234375 C 86.25 -77.148438 87.300781 -77.085938 88.46875 -77.046875 C 89.644531 -77.015625 90.703125 -76.921875 91.640625 -76.765625 C 91.015625 -89.265625 85.625 -96.566406 75.46875 -98.671875 C 72.113281 -99.378906 68.539062 -99.734375 64.75 -99.734375 C 60.957031 -99.734375 57.242188 -99.398438 53.609375 -98.734375 C 49.984375 -98.066406 46.453125 -97.1875 43.015625 -96.09375 C 35.429688 -93.675781 30 -90.90625 26.71875 -87.78125 L 26.375 -88.015625 L 22.859375 -113.90625 C 36.679688 -121.175781 51.796875 -124.8125 68.203125 -124.8125 C 93.671875 -124.8125 109.960938 -115.628906 117.078125 -97.265625 C 119.335938 -91.410156 120.46875 -84.8125 120.46875 -77.46875 L 120.46875 -35.046875 C 120.46875 -25.984375 123.671875 -19.8125 130.078125 -16.53125 L 108.875 2.9375 C 104.414062 0.582031 100.820312 -2.816406 98.09375 -7.265625 Z M 91.765625 -55.671875 C 89.648438 -56.054688 87.460938 -56.25 85.203125 -56.25 L 80.515625 -56.25 C 63.242188 -56.25 52.265625 -52.421875 47.578125 -44.765625 C 46.171875 -42.503906 45.46875 -40.125 45.46875 -37.625 C 45.46875 -35.125 45.914062 -32.914062 46.8125 -31 C 47.71875 -29.082031 49.222656 -27.5 51.328125 -26.25 C 55.390625 -23.90625 61.425781 -22.734375 69.4375 -22.734375 C 77.445312 -22.734375 84.925781 -24.648438 91.875 -28.484375 C 91.800781 -29.335938 91.765625 -30.234375 91.765625 -31.171875 Z M 91.765625 -55.671875"/></g><g id="f"><path d="M 46.53125 -118.015625 C 55.28125 -122.546875 64.222656 -124.8125 73.359375 -124.8125 C 82.503906 -124.8125 90.375 -123.382812 96.96875 -120.53125 C 103.570312 -117.675781 109.375 -113.59375 114.375 -108.28125 C 125.238281 -96.488281 130.671875 -81.566406 130.671875 -63.515625 C 130.671875 -43.753906 124.769531 -27.816406 112.96875 -15.703125 C 101.644531 -4.054688 87.546875 1.765625 70.671875 1.765625 C 55.828125 1.765625 43.597656 -2.101562 33.984375 -9.84375 C 23.203125 -18.59375 17.8125 -30.664062 17.8125 -46.0625 L 17.8125 -174.375 L 46.53125 -174.375 Z M 46.53125 -46.40625 C 46.53125 -32.65625 55.082031 -25.78125 72.1875 -25.78125 C 80.550781 -25.78125 87.582031 -29.453125 93.28125 -36.796875 C 99.0625 -44.296875 101.953125 -53.632812 101.953125 -64.8125 C 101.953125 -76.0625 98.90625 -84.535156 92.8125 -90.234375 C 87.34375 -95.316406 80 -97.859375 70.78125 -97.859375 C 65.238281 -97.859375 59.109375 -95.984375 52.390625 -92.234375 C 50.273438 -91.054688 48.320312 -89.765625 46.53125 -88.359375 Z M 46.53125 -46.40625"/></g><g id="g"><path d="M 0.828125 -122.46875 L 32.34375 -122.46875 L 54.140625 -34.453125 L 77.578125 -122.46875 L 104.53125 -122.46875 L 128.796875 -32.578125 L 150.59375 -122.46875 L 178.953125 -122.46875 L 142.859375 0 L 112.5 0 L 89.296875 -80.28125 L 67.734375 0 L 37.625 0 Z M 0.828125 -122.46875"/></g><g id="h"><path d="M 44.890625 -13.125 C 44.890625 -6.40625 45.046875 -2.03125 45.359375 0 L 16.171875 0 L 16.171875 -122.46875 L 44.890625 -122.46875 L 44.890625 -113.4375 C 51.523438 -121.019531 58.492188 -124.8125 65.796875 -124.8125 C 73.109375 -124.8125 78.875 -123.910156 83.09375 -122.109375 L 80.984375 -90.59375 L 80.515625 -90.234375 C 77.773438 -95.078125 72.109375 -97.5 63.515625 -97.5 C 60.234375 -97.5 56.894531 -96.382812 53.5 -94.15625 C 50.101562 -91.9375 47.234375 -88.988281 44.890625 -85.3125 Z M 44.890625 -13.125"/></g><g id="i"><path d="M 11.375 -60.234375 C 11.375 -69.378906 12.9375 -77.859375 16.0625 -85.671875 C 19.1875 -93.484375 23.597656 -100.316406 29.296875 -106.171875 C 41.484375 -118.597656 57.421875 -124.8125 77.109375 -124.8125 C 93.753906 -124.8125 107.113281 -119.300781 117.1875 -108.28125 C 127.113281 -97.65625 132.078125 -84.296875 132.078125 -68.203125 C 132.078125 -62.035156 131.609375 -57.816406 130.671875 -55.546875 C 122.859375 -53.359375 106.957031 -52.265625 82.96875 -52.265625 L 41.71875 -52.265625 C 43.75 -43.910156 48.472656 -37.40625 55.890625 -32.75 C 63.316406 -28.101562 72.96875 -25.78125 84.84375 -25.78125 C 97.269531 -25.78125 107.9375 -28.007812 116.84375 -32.46875 C 119.1875 -33.632812 120.941406 -34.726562 122.109375 -35.75 C 121.953125 -32.46875 121.757812 -29.109375 121.53125 -25.671875 L 120.234375 -7.390625 C 114.296875 -3.328125 104.6875 -0.507812 91.40625 1.0625 C 87.5 1.53125 83.75 1.765625 80.15625 1.765625 C 60.3125 1.765625 43.90625 -4.019531 30.9375 -15.59375 C 17.894531 -27.226562 11.375 -42.109375 11.375 -60.234375 Z M 100.90625 -75 C 97.695312 -91.800781 88.554688 -100.203125 73.484375 -100.203125 C 61.609375 -100.203125 52.582031 -95.082031 46.40625 -84.84375 C 44.53125 -81.71875 43.085938 -78.28125 42.078125 -74.53125 C 43.953125 -74.457031 46.253906 -74.378906 48.984375 -74.296875 L 57.65625 -74.296875 C 60.550781 -74.222656 63.328125 -74.1875 65.984375 -74.1875 L 72.65625 -74.1875 C 76.644531 -74.1875 80.550781 -74.222656 84.375 -74.296875 L 93.984375 -74.65625 C 96.566406 -74.726562 98.875 -74.84375 100.90625 -75 Z M 100.90625 -75"/></g><g id="a"><path d="M 211.144531 -44.640625 C 210.164062 -45.941406 209.1875 -46.59375 207.882812 -46.59375 C 206.90625 -46.59375 205.929688 -45.941406 204.953125 -44.964844 C 189.3125 -29 165.199219 -14.664062 133.265625 -14.664062 C 80.480469 -14.664062 38.121094 -62.5625 38.121094 -114.042969 C 38.121094 -165.199219 80.480469 -213.421875 133.265625 -213.421875 C 165.199219 -213.421875 189.636719 -199.085938 203.972656 -183.773438 C 205.277344 -182.792969 206.253906 -182.144531 207.558594 -182.144531 C 208.535156 -182.144531 209.839844 -182.792969 210.816406 -183.773438 L 218.636719 -192.570312 C 220.917969 -194.851562 220.917969 -196.480469 218.636719 -198.761719 C 197.785156 -219.613281 164.875 -232.320312 133.265625 -232.320312 C 69.078125 -232.320312 16.617188 -178.886719 16.617188 -114.042969 C 16.617188 -49.203125 69.078125 4.234375 133.265625 4.234375 C 164.875 4.234375 197.785156 -8.472656 218.636719 -29.324219 C 221.242188 -31.933594 221.242188 -33.5625 218.960938 -36.167969 Z M 211.144531 -44.640625"/></g></defs><path stroke-linecap="round" transform="matrix(0 -20.29157 20.24872 0 65.774 312.133)" fill="none" d="M 0.499942 -0.0000416906 L 5.866241 -0.0000416906" stroke="#A6A6A6"/><g fill="#FFF"><use x="37.582" y="301.916" xmlns:xlink="http://www.w3.org/1999/xlink" xlink:href="#a" xlink:type="simple" xlink:actuate="onLoad" xlink:show="embed"/></g><path fill="#A6A6A6" d="M 65.667969 295.269531 C 56.414062 295.269531 48.910156 302.773438 48.910156 312.027344 C 48.910156 321.285156 56.414062 328.785156 65.667969 328.785156 C 74.925781 328.785156 82.425781 321.285156 82.425781 312.027344 C 82.425781 302.773438 74.925781 295.269531 65.667969 295.269531 Z M 65.667969 295.269531"/><path fill="#FFF" d="M 251.164062 89.753906 C 239.597656 89.753906 230.21875 99.132812 230.21875 110.699219 C 230.21875 122.269531 239.597656 131.648438 251.164062 131.648438 C 262.734375 131.648438 272.113281 122.269531 272.113281 110.699219 C 272.113281 99.132812 262.734375 89.753906 251.164062 89.753906 Z M 251.164062 89.753906"/><path fill="#FFF" d="M 251.164062 242.382812 C 239.597656 242.382812 230.21875 251.761719 230.21875 263.328125 C 230.21875 274.898438 239.597656 284.277344 251.164062 284.277344 C 262.734375 284.277344 272.113281 274.898438 272.113281 263.328125 C 272.113281 251.761719 262.734375 242.382812 251.164062 242.382812 Z M 251.164062 242.382812"/><g fill="#FFF"><use x="322.852" y="259.5" xmlns:xlink="http://www.w3.org/1999/xlink" xlink:href="#b" xlink:type="simple" xlink:actuate="onLoad" xlink:show="embed"/><use x="443.086" y="259.5" xmlns:xlink="http://www.w3.org/1999/xlink" xlink:href="#c" xlink:type="simple" xlink:actuate="onLoad" xlink:show="embed"/><use x="583.359" y="259.5" xmlns:xlink="http://www.w3.org/1999/xlink" xlink:href="#d" xlink:type="simple" xlink:actuate="onLoad" xlink:show="embed"/><use x="643.477" y="259.5" xmlns:xlink="http://www.w3.org/1999/xlink" xlink:href="#e" xlink:type="simple" xlink:actuate="onLoad" xlink:show="embed"/><use x="783.281" y="259.5" xmlns:xlink="http://www.w3.org/1999/xlink" xlink:href="#f" xlink:type="simple" xlink:actuate="onLoad" xlink:show="embed"/><use x="922.383" y="259.5" xmlns:xlink="http://www.w3.org/1999/xlink" xlink:href="#g" xlink:type="simple" xlink:actuate="onLoad" xlink:show="embed"/><use x="1102.266" y="259.5" xmlns:xlink="http://www.w3.org/1999/xlink" xlink:href="#e" xlink:type="simple" xlink:actuate="onLoad" xlink:show="embed"/><use x="1242.07" y="259.5" xmlns:xlink="http://www.w3.org/1999/xlink" xlink:href="#h" xlink:type="simple" xlink:actuate="onLoad" xlink:show="embed"/><use x="1322.226" y="259.5" xmlns:xlink="http://www.w3.org/1999/xlink" xlink:href="#i" xlink:type="simple" xlink:actuate="onLoad" xlink:show="embed"/></g></svg>