<?xml version="1.0" encoding="UTF-8"?>
<svg width="1200pt" height="1200pt" version="1.1" viewBox="0 0 1200 1200" xmlns="http://www.w3.org/2000/svg">
 <path d="m972 241.2c-39.602 0-72 32.398-72 72 0 10.801 2.3984 20.398 6 28.801l-145.2 115.2c-40.801-43.199-97.199-70.801-160.8-70.801-50.398 0-96 16.801-132 44.398l-117.6-132c10.801-15.602 18-33.602 18-54 0-49.199-40.801-90-90-90-49.199 0-90 40.801-90 90s40.801 90 90 90c16.801 0 32.398-4.8008 45.602-12l117.6 132c-37.199 39.602-61.199 93.602-61.199 152.4 0 52.801 19.199 102 50.398 140.4l-72 70.801c-21.602-16.801-48-26.398-76.801-26.398-69.602 0.003906-126 56.402-126 126s56.398 126 126 126 126-56.398 126-126c0-27.602-9.6016-52.801-24-74.398l72-70.801c38.398 34.801 88.801 55.199 144 55.199 50.398 0 96-16.801 133.2-45.602l112.8 124.8c-6 9.6016-9.6016 21.602-9.6016 33.602 0 34.801 28.801 63.602 63.602 63.602s63.602-28.801 63.602-63.602-27.602-63.602-63.602-63.602c-9.6016 0-19.199 2.3984-27.602 6l-112.8-124.8c37.199-39.602 60-92.398 60-151.2 0-45.602-13.199-87.602-37.199-122.4l145.2-114c12 9.6016 27.602 14.398 43.199 14.398 39.602 0 72-32.398 72-72 0.003906-39.598-29.996-72-70.797-72zm-355.2 496.8v37.199h-31.199v-37.199c-40.801-4.8008-67.199-28.801-76.801-72l49.199-13.199c4.8008 27.602 19.199 40.801 45.602 40.801 43.199 0 55.199-43.199-10.801-67.199-109.2-37.199-90-145.2-6-157.2v-28.801h31.199v28.801c36 4.8008 58.801 24 68.398 60l-44.398 18c-8.3984-24-21.602-37.199-39.602-37.199-36 0-48 40.801 12 62.398 118.8 45.598 94.801 156 2.4023 165.6z" fill="#2966ff"/>
</svg>
