<?xml version="1.0" encoding="UTF-8"?>
<svg width="1200pt" height="1200pt" version="1.1" viewBox="0 0 1200 1200" xmlns="http://www.w3.org/2000/svg">
 <path d="m600 119.81c-325.93 0-581.25 111.11-581.25 252.96v507.07c0 79.199 80.195 151.88 220.03 199.37 1.9688 0.65625 4.0117 0.99219 6.0391 0.99219 3.8633 0 7.6875-1.1797 10.93-3.5234 4.9141-3.5234 7.8203-9.1875 7.8203-15.227v-349.38c27.039-8.5859 56.062-16.199 86.758-22.688v93.73c0 6.6953 3.5625 12.898 9.375 16.238l230.93 133.31c2.9062 1.668 6.1328 2.5117 9.375 2.5117 3.2422 0 6.4688-0.84375 9.375-2.5117l230.93-133.31c5.8125-3.3555 9.375-9.543 9.375-16.238v-93.617c30.695 6.4883 59.738 14.062 86.758 22.668l-0.007812 349.27c0 6.0391 2.9062 11.719 7.8203 15.227 3.2266 2.3242 7.0508 3.5234 10.93 3.5234 2.0234 0 4.0703-0.33594 6.0391-0.99219 139.84-47.496 220.03-120.17 220.03-199.35v-507.07c0-141.86-255.32-252.96-581.25-252.96zm0 508.29-193.43-111.68 193.43-111.66 193.43 111.68zm212.18 144.17-193.43 111.68v-223.35l125.38-72.395 68.023-39.281v223.35zm37.5-121.5v-134.32c0-6.6953-3.5625-12.898-9.375-16.238l-230.93-133.33c-5.8125-3.3359-12.938-3.3359-18.75 0l-230.93 133.31c-5.8125 3.3555-9.375 9.543-9.375 16.238v134.29c-30.469 6.168-59.57 13.332-86.758 21.602v-117.98c0-8.043-5.1172-15.188-12.711-17.758-121.86-41.363-194.61-102.6-194.61-163.82 0-116.79 249-215.46 543.75-215.46s543.75 98.68 543.75 215.46c0 61.219-72.75 122.46-194.59 163.84-7.5938 2.5859-12.711 9.7305-12.711 17.758v118.11c-27.246-8.2695-56.273-15.523-86.777-21.695z" fill="#2966ff"/>
</svg>
