<?xml version="1.0" encoding="UTF-8"?>
<svg width="1200pt" height="1200pt" version="1.1" viewBox="0 0 1200 1200" xmlns="http://www.w3.org/2000/svg">
 <path d="m191.18 870.4c80.461 0 146.75 60.664 155.64 138.75 0.53906 4.7266-0.82422 8.9883-3.9883 12.539-3.1641 3.5391-7.25 5.375-12 5.375h-279.3c-4.75 0-8.8359-1.8359-12-5.375-3.1719-3.5625-4.5234-7.8242-3.9844-12.551 8.8867-78.074 75.172-138.74 155.64-138.74zm0-181.4c43.738 0 79.199 35.461 79.199 79.199s-35.461 79.199-79.199 79.199-79.199-35.461-79.199-79.199 35.461-79.199 79.199-79.199zm408.82 181.4c80.461 0 146.75 60.664 155.64 138.75 0.53906 4.7266-0.82422 8.9883-3.9883 12.539-3.1641 3.5391-7.25 5.375-12 5.375h-279.3c-4.75 0-8.8359-1.8359-12-5.375-3.1641-3.5508-4.5234-7.8125-3.9883-12.539 8.8867-78.086 75.176-138.75 155.64-138.75zm0-181.4c43.738 0 79.199 35.461 79.199 79.199s-35.461 79.199-79.199 79.199-79.199-35.461-79.199-79.199 35.461-79.199 79.199-79.199zm408.82 181.4c80.461 0 146.75 60.664 155.64 138.75 0.53906 4.7266-0.82422 8.9883-3.9883 12.539-3.1641 3.5391-7.25 5.375-12 5.375h-279.3c-4.75 0-8.8359-1.8359-12-5.375-3.1641-3.5508-4.5234-7.8125-3.9883-12.539 8.8867-78.086 75.176-138.75 155.64-138.75zm0-181.4c43.738 0 79.199 35.461 79.199 79.199s-35.461 79.199-79.199 79.199-79.199-35.461-79.199-79.199 35.461-79.199 79.199-79.199zm-820.97-516.05c86.387 0 156.43 70.039 156.43 156.43 0 67.551-42.824 125.1-102.8 146.99l-43.176 94.352c-1.9141 4.1875-5.8516 6.7109-10.449 6.7109-4.6016 0-8.5391-2.5234-10.449-6.7109l-43.176-94.352c-59.977-21.887-102.8-79.438-102.8-146.99 0-86.387 70.035-156.43 156.43-156.43zm-65.301 165.2 46.352 46.352c7.1758 7.1758 18.824 7.1758 26 0l76.477-76.477c7.1758-7.1758 7.1758-18.824 0-26-7.1758-7.1758-18.824-7.1758-26 0l-63.477 63.477-33.352-33.352c-7.1758-7.1758-18.824-7.1758-26 0-7.1875 7.1758-7.1875 18.828 0 26zm477.45-165.2c86.387 0 156.43 70.039 156.43 156.43 0 67.551-42.824 125.1-102.8 146.99l-43.176 94.352c-1.9141 4.1875-5.8516 6.7109-10.449 6.7109-4.6016 0-8.5391-2.5234-10.449-6.7109l-43.176-94.352c-59.977-21.887-102.8-79.438-102.8-146.99 0-86.387 70.039-156.43 156.43-156.43zm-63.699 122.62 37.688 37.688-37.688 37.688c-7.1758 7.1758-7.1758 18.824 0 26s18.824 7.1758 26 0l37.699-37.688 37.688 37.688c7.1758 7.1758 18.824 7.1758 26 0s7.1758-18.824 0-26l-37.688-37.688 37.688-37.688c7.1758-7.1758 7.1758-18.824 0-26s-18.824-7.1758-26 0l-37.688 37.688-37.688-37.688c-7.1758-7.1758-18.824-7.1758-26 0-7.1875 7.1758-7.1875 18.812-0.011719 26zm475.85-122.62c86.387 0 156.43 70.039 156.43 156.43 0 67.551-42.824 125.1-102.8 146.99l-43.176 94.352c-1.9141 4.1875-5.8516 6.7109-10.449 6.7109-4.6016 0-8.5391-2.5234-10.449-6.7109l-43.176-94.352c-59.977-21.887-102.8-79.438-102.8-146.99 0.003906-86.387 70.039-156.43 156.43-156.43zm-74.41 165.2 46.352 46.352c7.1758 7.1758 18.824 7.1758 26 0l76.477-76.477c7.1758-7.1758 7.1758-18.824 0-26-7.1758-7.1758-18.824-7.1758-26 0l-63.477 63.477-33.352-33.352c-7.1758-7.1758-18.824-7.1758-26 0-7.1875 7.1758-7.1875 18.828 0 26z" fill="#2966ff" fill-rule="evenodd"/>
</svg>
